<svg xmlns="http://www.w3.org/2000/svg" xmlns:xlink="http://www.w3.org/1999/xlink" width="80" height="88" viewBox="0 0 80 88" role="img" aria-labelledby="title"><title id="title">Símbolo geométrico de dado de vinte lados</title><g font-family="Segoe UI, Arial, sans-serif"><g transform="translate(0 0) scale(1)" fill="none" stroke="#e2ba61" stroke-width="2" stroke-linejoin="round"><path d="M40 2 76 23 76 65 40 86 4 65 4 23Z M40 2 22 29 58 29Z M4 23 22 29 4 65 M76 23 58 29 76 65 M4 65 24 62 40 86 56 62 76 65 M22 29 24 62 56 62 58 29Z M24 62 40 86 M22 29 4 23 M58 29 76 23"/><path d="M22 29 40 50 58 29 M24 62 40 50 56 62"/></g></g></svg>